<svg xmlns="http://www.w3.org/2000/svg" height="67.216" width="281.442" viewBox="0 0 281.4422803243001 67.21599197387695"><path d="M102.114 10.416q0 1.824-.552 3.216t-1.44 2.472-2.016 1.872-2.28 1.368q-2.784 1.296-6.288 1.728.048 1.44.048 2.64 0 1.008-.024 1.92t-.168 1.152-1.176.264-2.304-.024-2.376-.144-1.296-.096q-.096 0-.168-1.104t-.072-2.952v-4.176l.048-4.776q.096-5.712.288-13.008 0-.144.312-.264t.84-.216 1.2-.144 1.392-.048q1.632-.048 3.696 0 3.456.336 6.144 1.584 1.152.528 2.256 1.296T100.17 4.8t1.416 2.448.528 3.168zm-12.48 2.016q.24.048.936-.072t1.44-.384 1.32-.696.576-.96q0-1.104-.672-1.68t-1.488-.816q-.912-.288-2.112-.336-.192 1.392-.24 2.448-.096.96-.048 1.704t.288.792zm39.408 7.344q.096 0 .192.528t.12 1.344.024 1.776-.048 1.8-.192 1.392-.336.552q-2.304 0-4.152-.336t-3.288-.888-2.496-1.272-1.776-1.44q-1.776-1.728-2.448-3.936l-.24 7.728h-7.056q-.144 0-.24-1.152t-.12-3.048-.024-4.296.048-4.944q.096-5.904.24-13.44 2.736 0 5.04.048 2.016.096 3.936.216t2.832.408q1.344.432 2.808 1.128t2.664 1.704T126.45 6t.672 3.072q-.144 2.88-.792 4.632t-1.368 2.76-1.32 1.488-.696.768.792.528 1.992.36 2.112.168 1.2 0zm-13.728-7.248q.288.048.912-.144t1.272-.576 1.104-.96.408-1.392q0-.336-.552-.864t-1.224-.96-1.32-.6-.936.12q-.096 1.44-.096 2.64 0 1.008.096 1.848t.336.888zM134.466.576q1.92-.24 3.456-.384 1.296-.096 2.4-.144t1.2.192q0 .096.048 1.296t.12 3.096.12 4.296.12 4.872.096 4.848 0 4.224-.072 2.976-.192 1.176q-.288.048-1.488.072t-2.544.024h-3.504zm31.728 7.152q-3.264-.384-5.856.048-1.104.192-2.16.576t-1.872 1.032-1.32 1.656-.504 2.4q0 1.44.504 2.448t1.344 1.704 1.92 1.128 2.232.672q2.64.528 6 .336v3.504q-.048 1.344-.096 2.496t-.192 1.248-1.224.12-2.328-.024q-1.488-.048-3.264-.096-3.552-.192-6.288-1.584-1.152-.576-2.28-1.512t-2.016-2.256-1.416-3.12-.528-4.2q0-2.64.528-4.632t1.392-3.456 1.992-2.472 2.28-1.68q2.736-1.536 6.24-1.776h6.96q.096 0 .12 1.176t-.024 2.568q-.048 1.632-.144 3.696zm23.568-7.68q.384 0 .648 1.128t.384 2.496.12 2.544-.096 1.32q-.048.096-.576.12t-1.368.072-1.896.048h-2.16q-2.592 0-5.856-.096l.24 2.112q2.016.096 3.696.144.72 0 1.416.024t1.272.048.984.024h.504q.24 0 .312 1.104t.12 2.4q.048 1.584.048 3.504l-8.112.48.144 1.872h7.992l1.968-.024 1.488-.048.744-.024.216.312.144.84.12 1.224.048 1.416q.048 1.728.048 3.936-5.616-.048-10.032-.096-1.872 0-3.72-.024t-3.336-.048-2.448-.072-1.104-.096-.24-1.2-.096-3.048.024-4.272.072-4.872q.144-5.808.336-13.248h17.952z" xmlns:name="mainText_mainfill" fill="#461f1e"/><path d="M89.826 37.504q4.176.288 7.536 1.776 1.392.624 2.76 1.584t2.424 2.328 1.704 3.192.648 4.176q0 2.544-.624 4.512t-1.656 3.408-2.328 2.424-2.64 1.608q-3.168 1.536-7.2 1.68h-8.208q-.096 0-.144-1.152t-.072-3.024-.024-4.272v-4.896q.048-5.856.144-13.344 0-.192 1.2-.216t2.64.024q1.68.048 3.84.192zm-.384 19.44q.096 0 .72.024t1.512-.072 1.896-.408 1.872-1.008 1.416-1.824.552-2.856q0-1.296-.36-2.232t-.936-1.584-1.296-1.032-1.488-.624q-1.824-.528-4.08-.336-.048 3.312-.048 5.952v2.184l.048 1.92.072 1.368.12.528zm38.688-19.728q.384 0 .648 1.128t.384 2.496.12 2.544-.096 1.32q-.048.096-.576.12t-1.368.072-1.896.048h-2.16q-2.592 0-5.856-.096l.24 2.112q2.016.096 3.696.144.72 0 1.416.024t1.272.048.984.024h.504q.24 0 .312 1.104t.12 2.4q.048 1.584.048 3.504l-8.112.48.144 1.872h7.992l1.968-.024 1.488-.048.744-.024.216.312.144.84.12 1.224.048 1.416q.048 1.728.048 3.936-5.616-.048-10.032-.096-1.872 0-3.72-.024t-3.336-.048-2.448-.072-1.104-.096-.24-1.2-.096-3.048.024-4.272.072-4.872q.144-5.808.336-13.248h17.952zm11.232.144q1.344 0 2.52.024t1.416.072q.096.048.168.888t.096 2.184.024 3.072v3.504q-.048 4.224-.144 9.552h6.432q1.2 0 2.4.024t2.184.048 1.632.048.792.024q.24.048.336 1.2t.048 2.544q-.048 1.584-.144 3.648-5.712.048-10.32.048h-7.272l-2.496-.024-1.128-.024-.192-1.176-.072-3.072-.024-4.32.048-4.92q.096-5.856.24-13.344h3.456zm22.992.384q1.92-.24 3.456-.384 1.296-.096 2.4-.144t1.2.192q0 .096.048 1.296t.12 3.096.12 4.296.12 4.872.096 4.848 0 4.224-.072 2.976-.192 1.176q-.288.048-1.488.072t-2.544.024h-3.504zm20.352-.192q1.344 3.504 2.448 6.24.48 1.152.936 2.28t.84 2.016.624 1.44.336.552q.048 0 .312-.528t.648-1.392.864-1.992 1.008-2.328q1.152-2.736 2.592-6.288h7.488q.048 0-.36 1.152t-1.128 3.024T197.658 46t-1.944 4.896l-5.376 13.344q-1.248 0-2.256-.048-.864-.048-1.68-.096t-1.056-.144q-.144-.048-.648-1.224t-1.272-3.048-1.704-4.248-1.896-4.824q-2.304-5.808-5.088-13.056h7.968zm41.376-.336q.384 0 .648 1.128t.384 2.496.12 2.544-.096 1.32q-.048.096-.576.12t-1.368.072-1.896.048h-2.16q-2.592 0-5.856-.096l.24 2.112q2.016.096 3.696.144.72 0 1.416.024t1.272.048.984.024h.504q.24 0 .312 1.104t.12 2.4q.048 1.584.048 3.504l-8.112.48.144 1.872h7.992l1.968-.024 1.488-.048.744-.024.216.312.144.84.12 1.224.048 1.416q.048 1.728.048 3.936-5.616-.048-10.032-.096-1.872 0-3.72-.024t-3.336-.048-2.448-.072-1.104-.096-.24-1.2-.096-3.048.024-4.272.072-4.872q.144-5.808.336-13.248h17.952zm29.568 19.728q.096 0 .192.528t.12 1.344.024 1.776-.048 1.8-.192 1.392-.336.552q-2.304 0-4.152-.336t-3.288-.888-2.496-1.272-1.776-1.44q-1.776-1.728-2.448-3.936l-.24 7.728h-7.056q-.144 0-.24-1.152t-.12-3.048-.024-4.296.048-4.944q.096-5.904.24-13.44 2.736 0 5.04.048 2.016.096 3.936.216t2.832.408q1.344.432 2.808 1.128t2.664 1.704 1.92 2.352.672 3.072q-.144 2.88-.792 4.632t-1.368 2.76-1.32 1.488-.696.768.792.528 1.992.36 2.112.168 1.2 0zm-13.728-7.248q.288.048.912-.144t1.272-.576 1.104-.96.408-1.392q0-.336-.552-.864t-1.224-.96-1.32-.6-.936.12q-.096 1.44-.096 2.64 0 1.008.096 1.848t.336.888zm18.96-8.496q1.632-1.104 2.976-1.968 1.152-.768 2.136-1.368t1.128-.6q.096.048.48.648t.912 1.488 1.128 1.896 1.128 1.824.936 1.32.504.36.48-.744.912-1.44 1.128-1.752 1.128-1.704.912-1.296.432-.504q.096 0 1.104.648t2.16 1.464q1.344.912 2.976 2.112-4.32 7.056-7.776 12.624-1.488 2.4-2.904 4.68t-2.568 4.104-1.896 2.952-.84 1.176q-.24.096-1.32-.432t-2.28-1.248-2.112-1.416-.864-.888q.048-.096.36-.648t.816-1.344 1.104-1.8 1.272-2.016q1.536-2.4 3.408-5.376z" xmlns:name="mainText2_mainfill" fill="#461f1e"/><g xmlns="http://www.w3.org/2000/svg" transform="translate(-3.721 -3.614) scale(.74444)" xmlns:name="symbol_mainfill" fill="#461f1e"><path d="M50 95C25.186 95 4.999 74.813 4.999 50S25.186 5 50 5c24.815 0 45.002 20.187 45.002 45S74.814 95 50 95zm0-82.372c-20.607 0-37.372 16.765-37.372 37.372S29.393 87.371 50 87.371c20.608 0 37.374-16.765 37.374-37.371S70.607 12.628 50 12.628z"/><path d="M50 71.841c-12.043 0-21.842-9.798-21.842-21.841 0-12.044 9.798-21.842 21.842-21.842S71.842 37.956 71.842 50c0 12.043-9.799 21.841-21.842 21.841zm0-39.869c-9.94 0-18.027 8.087-18.027 18.028S40.06 68.026 50 68.026 68.027 59.94 68.027 50 59.939 31.972 50 31.972z"/><path d="M50 93.093a1.907 1.907 0 0 1-1.907-1.907V8.814a1.907 1.907 0 0 1 3.814 0v82.372A1.908 1.908 0 0 1 50 93.093z"/><path d="M91.186 51.907H8.814a1.907 1.907 0 0 1 0-3.814h82.372a1.907 1.907 0 1 1 0 3.814z"/><path d="M50 53.814a3.813 3.813 0 0 1-2.697-6.511l21.411-21.412a3.814 3.814 0 1 1 5.395 5.394L52.695 52.697A3.801 3.801 0 0 1 50 53.814z"/><circle cx="31.541" cy="26.681" r="1.907"/><circle cx="77.358" cy="60.604" r="1.907"/><circle cx="41.728" cy="41.46" r="2.853"/></g></svg>